<svg width="42" height="42" viewBox="0 0 42 42" fill="none" xmlns="http://www.w3.org/2000/svg">
<path d="M4.63355 16.3016H10.3419V17.5568H6.01677V23.5892H10.3419V24.8443H4.63355V16.3016ZM1 24.9514C1.64688 23.5438 2.08731 22.1622 2.32129 20.8065H3.79742C3.50151 22.4735 3.09548 23.8551 2.57935 24.9514H1ZM1.06194 18.4519L3.86968 19.1622V20.4659L1.06194 19.7751V18.4519ZM1.37161 16.2238L3.90065 16.8951V18.2184L1.37161 17.547V16.2238Z" fill="#070707"/>
<path d="M16.8865 17.8681V17.5178H14.3574V16.4281H16.8865V16H18.2077V16.4281H20.7368V17.5178H18.2077V17.8681H20.489V20.3784H14.6052V17.8681H16.8865ZM11.2606 21.0886C12.1553 20.5178 12.7781 19.7265 13.129 18.7146H14.4606C14.268 19.4476 13.9548 20.1189 13.5213 20.7286V24.9514H12.1794V22.0519C11.9247 22.24 11.6185 22.4281 11.2606 22.6162V21.0886ZM11.2606 18.5103C12.0933 17.933 12.6611 17.1546 12.9639 16.1751H14.2335C13.8 17.8941 12.809 19.1784 11.2606 20.0281V18.5103ZM13.7484 24.9124C14.0856 23.9978 14.2542 23.0346 14.2542 22.0227H15.3794C15.3794 23.0735 15.2314 24.0368 14.9355 24.9124H13.7484ZM14.3574 20.7286H20.7368V21.8184H14.3574V20.7286ZM16.3497 19.4541V18.8022H15.72V19.4541H16.3497ZM15.7303 22.0227H16.8968V23.92H19.1368V24.9416H15.7303V22.0227ZM17.8568 19.4541V18.8022H17.2271V19.4541H17.8568ZM18.4245 22.0227L18.6826 23.6768H17.6194L17.351 22.0227H18.4245ZM19.3742 19.4541V18.8022H18.7239V19.4541H19.3742ZM20.2929 22.0227C20.2929 23.0411 20.4546 24.0043 20.7781 24.9124H19.6116C19.3157 24.0368 19.1677 23.0735 19.1677 22.0227H20.2929Z" fill="#070707"/>
<path d="M26.4452 24.9514C26.8994 24.3676 27.271 23.8649 27.56 23.4432C27.8559 23.0151 28.1105 22.5838 28.3239 22.1492L27.7252 20.573H26.569C27.0645 19.2368 27.4258 17.7514 27.6529 16.1168H28.9845C28.9432 16.4605 28.8916 16.8043 28.8297 17.1481H31.0594V18.413H30.6774C30.4985 19.827 30.2267 21.0141 29.8619 21.9741L31.1626 24.9514H29.7381L29.0774 23.4238C28.8434 23.8519 28.5166 24.3611 28.0968 24.9514H26.4452ZM22.4606 19.7459H21.5832V18.6368H23.3071V18.0043H21.9548V16.8951H23.3071V16.1946H24.6077V16.8951H25.2271V17.8681L25.6916 16.6324H27.0129L26.2594 18.6368H26.7135V19.7459H23.8232L23.6374 20.1935H26.3626L25.3923 21.9254L27.1781 21.6238V22.7524L25.2168 23.0832V24.9514H22.8529V23.8519H23.9161V23.1124L21.6865 23.4919V22.3632L24.0297 21.9643L24.4323 21.293H23.1832L22.9458 21.867H21.5832L22.4606 19.7459ZM24.9381 18.6368L25.1755 18.0043H24.6077V18.6368H24.9381ZM29.0155 20.5438C29.2151 19.8757 29.363 19.1654 29.4594 18.413H28.5923L28.4684 18.9481L29.0155 20.5438Z" fill="#070707"/>
<path d="M32.8864 20.1059H40.4219V25H39.08V24.2411H34.2284V25H32.8864V20.1059ZM32.3084 16.5449H35.9935V16H37.3148V16.5449H41V17.7124H36.0658L35.3226 18.4908H38.6052L38.2232 17.907H39.8439L40.9897 19.6389H32.4942V18.4908H33.5781L34.3213 17.7124H32.3084V16.5449ZM39.08 23.2195V22.7232H34.2284V23.2195H39.08ZM39.08 21.7016V21.1957H34.2284V21.7016H39.08Z" fill="#070707"/>
</svg>
